HIERARCHY
ROOT Hips
{
	OFFSET 0.000000 0.000000 0.000000 
	CHANNELS 6 Xposition Yposition Zposition Zrotation Yrotation Xrotation
	JOINT LeftUpLeg
	{
		OFFSET 1.363060 -1.794630 0.839290 
		CHANNELS 3 Zrotation Yrotation Xrotation
		JOINT LeftLeg
		{
			OFFSET 2.448110 -6.726130 0.000000 
			CHANNELS 3 Zrotation Yrotation Xrotation
			JOINT LeftFoot
			{
				OFFSET 2.562200 -7.039590 0.000000 
				CHANNELS 3 Zrotation Yrotation Xrotation
				JOINT LeftToeBase
				{
					OFFSET 0.157640 -0.433110 2.322550 
					CHANNELS 3 Zrotation Yrotation Xrotation
					End Site
					{
						OFFSET 0.000000 0.000000 0.000000 
					}
				}
			}
		}
	}
	JOINT RightUpLeg
	{
		OFFSET -1.305520 -1.794630 0.839290 
		CHANNELS 3 Zrotation Yrotation Xrotation
		JOINT RightLeg
		{
			OFFSET -2.542530 -6.985550 0.000000 
			CHANNELS 3 Zrotation Yrotation Xrotation
			JOINT RightFoot
			{
				OFFSET -2.568260 -7.056230 0.000000 
				CHANNELS 3 Zrotation Yrotation Xrotation
				JOINT RightToeBase
				{
					OFFSET -0.164730 -0.452590 2.363150 
					CHANNELS 3 Zrotation Yrotation Xrotation
					End Site
					{
						OFFSET 0.000000 0.000000 0.000000 
					}
				}
			}
		}
	}
	JOINT Spine
	{
		OFFSET 0.028270 2.035590 -0.193380 
		CHANNELS 3 Zrotation Yrotation Xrotation
		JOINT Spine1
		{
			OFFSET 0.056720 2.048850 -0.042750 
			CHANNELS 3 Zrotation Yrotation Xrotation
			JOINT Neck1
			{
				OFFSET -0.054170 1.746240 0.172020 
				CHANNELS 3 Zrotation Yrotation Xrotation
				JOINT Head
				{
					OFFSET 0.104070 1.761360 -0.123970 
					CHANNELS 3 Zrotation Yrotation Xrotation
					End Site
					{
						OFFSET 0.000000 0.000000 0.000000 
					}
				}
			}
			JOINT LeftArm
			{
				OFFSET 3.362410 1.200890 -0.311210 
				CHANNELS 3 Zrotation Yrotation Xrotation
				JOINT LeftForeArm
				{
					OFFSET 4.983000 -0.000000 -0.000000 
					CHANNELS 3 Zrotation Yrotation Xrotation
					JOINT LeftHand
					{
						OFFSET 3.483560 -0.000000 -0.000000 
						CHANNELS 3 Zrotation Yrotation Xrotation
						JOINT LeftHandIndex1
						{
							OFFSET 0.715260 -0.000000 -0.000000 
							CHANNELS 3 Zrotation Yrotation Xrotation
							End Site
							{
								OFFSET 0.000000 0.000000 0.000000 
							}
						}
					}
				}
			}
			JOINT RightArm
			{
				OFFSET -3.136600 1.374050 -0.404650 
				CHANNELS 3 Zrotation Yrotation Xrotation
				JOINT RightForeArm
				{
					OFFSET -5.241900 -0.000000 -0.000000 
					CHANNELS 3 Zrotation Yrotation Xrotation
					JOINT RightHand
					{
						OFFSET -3.444170 -0.000000 -0.000000 
						CHANNELS 3 Zrotation Yrotation Xrotation
						JOINT RightHandIndex1
						{
							OFFSET -0.622530 -0.000000 -0.000000 
							CHANNELS 3 Zrotation Yrotation Xrotation
							End Site
							{
								OFFSET 0.000000 0.000000 0.000000 
							}
						}
					}
				}
			}
		}
	}
}
MOTION
Frames: 13
Frame Time: 0.041667
0.430645 17.334472 -1.510729 3.451914 -3.454371 -0.121043 -25.273960 -4.452077 -13.149455 2.164232 10.032215 32.320293 0.070548 2.975002 -11.050364 0.544200 -4.726200 -13.129200 17.292293 10.100440 -14.813777 -4.012920 -11.626354 37.315810 0.296742 -5.874696 -14.136108 -0.561300 4.798800 -13.335700 -0.313772 3.605247 -1.725365 -1.645485 1.755694 -0.514231 3.869359 -5.598486 10.871988 2.275900 -2.886200 3.959000 -15.955294 -41.790257 -13.066534 80.937084 -56.235938 -53.051513 0.157294 -0.328110 -53.420351 -7.125000 0.000000 0.000000 6.120183 42.382525 -21.668067 -60.203138 55.794555 -32.733176 -0.274578 -0.575324 -42.315575 7.125000 0.000000 0.000000 
0.429158 17.339925 -1.504186 3.537070 -3.444056 -0.109519 -25.367544 -4.467154 -13.043697 2.132042 9.981499 32.173002 0.062156 3.014742 -11.076925 0.542800 -4.720200 -13.112100 17.193001 10.071027 -14.758830 -3.988578 -11.595135 37.205175 0.295179 -5.857007 -14.115119 -0.551000 4.755400 -13.212100 -0.331505 3.633218 -1.731278 -1.662896 1.767736 -0.528212 3.948042 -5.655760 10.800742 2.321900 -2.912100 3.959800 -17.269725 -41.252055 -11.126912 82.747423 -56.312808 -54.743632 0.202227 -0.305392 -52.634036 -7.125000 0.000000 0.000000 7.516766 41.722708 -19.744272 -61.805873 56.091743 -33.992589 -0.285730 -0.586736 -41.852251 7.125000 0.000000 0.000000 
0.428068 17.346269 -1.494471 3.604284 -3.423771 -0.065892 -25.441815 -4.475242 -12.959162 2.099449 9.931142 32.022363 0.068483 2.975111 -11.038951 0.515400 -4.601300 -12.774800 17.108464 10.066985 -14.716767 -3.966462 -11.568017 37.106190 0.308238 -5.907499 -14.090221 -0.562300 4.803000 -13.347400 -0.338060 3.620599 -1.729648 -1.660543 1.759027 -0.502243 3.993613 -5.663793 10.626174 2.338300 -2.910200 3.855100 -18.644672 -40.615649 -9.172410 84.552573 -56.376906 -56.441826 0.246450 -0.283876 -51.792305 -7.125000 0.000000 0.000000 9.001127 41.157203 -17.742770 -63.566529 56.393605 -35.387783 -0.299382 -0.599995 -41.501588 7.125000 0.000000 0.000000 
0.426284 17.350730 -1.485350 3.611264 -3.420632 -0.002868 -25.441558 -4.504090 -12.915994 2.067527 9.886226 31.877442 0.044817 3.032007 -10.920497 0.493100 -4.502400 -12.494600 17.098891 10.083487 -14.683901 -3.943370 -11.538557 37.004618 0.307377 -5.901847 -14.090401 -0.549000 4.746800 -13.187700 -0.330604 3.630690 -1.734554 -1.650042 1.761624 -0.495105 3.981096 -5.691867 10.422899 2.306400 -2.915900 3.727000 -20.110274 -39.957422 -7.130985 86.372420 -56.420247 -58.150746 0.297530 -0.265389 -50.964253 -7.125000 0.000000 0.000000 10.516771 40.550723 -15.740934 -65.525110 56.683463 -36.953577 -0.308629 -0.612103 -41.151341 7.125000 0.000000 0.000000 
0.424003 17.354894 -1.479898 3.549138 -3.433116 0.015608 -25.356340 -4.529428 -12.855538 2.040052 9.847317 31.750877 0.029115 3.067343 -10.834395 0.465600 -4.376900 -12.139500 17.189917 10.116930 -14.599688 -3.918666 -11.502078 36.894742 0.325367 -5.982071 -14.081987 -0.557100 4.780900 -13.284700 -0.306206 3.647770 -1.747523 -1.623061 1.767294 -0.544097 3.914034 -5.715517 10.262779 2.229800 -2.918900 3.635000 -21.661451 -39.234784 -5.146798 88.354826 -56.446044 -60.028864 0.339210 -0.250804 -50.367679 -7.125000 0.000000 0.000000 12.040411 39.871470 -13.664083 -67.592872 56.932735 -38.618982 -0.314270 -0.623411 -40.959117 7.125000 0.000000 0.000000 
0.421228 17.359653 -1.472562 3.550664 -3.434507 0.023706 -25.345173 -4.512428 -12.778626 2.017872 9.812859 31.647750 0.033753 3.062247 -10.881899 0.463200 -4.365600 -12.107600 17.207804 10.112464 -14.504922 -3.891645 -11.462725 36.771613 0.351941 -6.091780 -14.047074 -0.580400 4.878300 -13.561900 -0.299403 3.673219 -1.752022 -1.624157 1.776060 -0.546464 3.865848 -5.765413 10.133106 2.160700 -2.934400 3.564700 -23.257063 -38.528262 -3.156614 90.445330 -56.453128 -62.002569 0.382126 -0.232785 -49.791911 -7.125000 0.000000 0.000000 13.614699 39.142541 -11.644848 -69.863129 57.146585 -40.471237 -0.310496 -0.630564 -40.833202 7.125000 0.000000 0.000000 
0.419443 17.365601 -1.462648 3.528699 -3.399533 0.058028 -25.315636 -4.548297 -12.703566 1.996067 9.780619 31.548442 0.019461 3.127507 -10.910605 0.484100 -4.461400 -12.378500 17.238477 10.075869 -14.426027 -3.860912 -11.418552 36.631192 0.369776 -6.154247 -13.996925 -0.589900 4.917300 -13.672800 -0.286827 3.678416 -1.759095 -1.601028 1.775818 -0.512404 3.919896 -5.813034 10.066264 2.180200 -2.954000 3.568400 -24.772751 -37.807249 -1.150807 92.504587 -56.435082 -63.928837 0.436022 -0.214299 -49.109576 -7.125000 0.000000 0.000000 15.305980 38.387262 -9.595379 -72.663391 57.342907 -42.795539 -0.304124 -0.631542 -40.655177 7.125000 0.000000 0.000000 
0.415676 17.371053 -1.454321 3.466628 -3.375567 0.066194 -25.224539 -4.556145 -12.637551 1.973988 9.747279 31.443785 0.006331 3.159467 -10.845722 0.483900 -4.460700 -12.376600 17.331253 10.074598 -14.303238 -3.827770 -11.367655 36.478572 0.377930 -6.175255 -13.960887 -0.565500 4.816400 -13.385700 -0.264872 3.678977 -1.779770 -1.519829 1.775343 -0.521494 4.158118 -5.843097 10.110774 2.364300 -2.974900 3.701400 -26.259288 -37.012759 0.921171 94.437498 -56.386747 -65.720640 0.493408 -0.199641 -48.293113 -7.125000 0.000000 0.000000 16.980094 37.632787 -7.471287 -75.207518 57.440189 -44.934031 -0.311164 -0.633110 -40.298497 7.125000 0.000000 0.000000 
0.412504 17.376803 -1.446192 3.347312 -3.341796 0.065463 -25.065963 -4.591870 -12.553298 1.949927 9.712176 31.330377 -0.002543 3.174404 -10.780844 0.459600 -4.349000 -12.060600 17.498267 10.062527 -14.145080 -3.792377 -11.310697 36.316068 0.390019 -6.221971 -13.943774 -0.553100 4.763900 -13.236400 -0.231058 3.652943 -1.791875 -1.467232 1.761678 -0.534616 4.256809 -5.839647 10.009956 2.436000 -2.972700 3.697500 -27.702475 -36.140406 2.939769 96.385754 -56.324676 -67.520031 0.545468 -0.175006 -47.351615 -7.125000 0.000000 0.000000 18.587627 36.949956 -5.375504 -77.187737 57.462863 -46.606229 -0.329648 -0.635972 -39.831877 7.125000 0.000000 0.000000 
0.409133 17.383842 -1.436774 3.318012 -3.325565 0.095127 -25.018066 -4.607744 -12.493122 1.925086 9.676087 31.216103 -0.020271 3.241279 -10.769330 0.473200 -4.411600 -12.237700 17.553723 10.066428 -14.030028 -3.756721 -11.258542 36.153937 0.399123 -6.261438 -13.944640 -0.555100 4.772400 -13.260600 -0.214848 3.648848 -1.795798 -1.452261 1.757445 -0.523445 4.250028 -5.855910 9.750604 2.423100 -2.975200 3.550100 -29.149326 -35.285522 4.985763 98.356026 -56.242496 -69.319312 0.603640 -0.151519 -46.352249 -7.125000 0.000000 0.000000 20.269481 36.225918 -3.330494 -79.438446 57.454582 -48.539040 -0.332935 -0.630835 -39.328880 7.125000 0.000000 0.000000 
0.405564 17.391674 -1.428347 3.317002 -3.320795 0.143678 -25.000791 -4.634709 -12.452303 1.898187 9.638747 31.096348 -0.055222 3.390097 -10.801385 0.525000 -4.643400 -12.894300 17.573193 10.081567 -13.954179 -3.722452 -11.210414 35.998422 0.415674 -6.328750 -13.925405 -0.555100 4.772400 -13.260500 -0.200538 3.643954 -1.814172 -1.419200 1.753414 -0.547803 4.297207 -5.834831 9.535515 2.459000 -2.962600 3.434600 -30.665785 -34.353472 7.118608 100.316656 -56.130900 -71.088993 0.666104 -0.126863 -45.302912 -7.125000 0.000000 0.000000 22.126491 35.482200 -1.196566 -81.932885 57.393374 -50.719869 -0.328132 -0.623916 -38.885161 7.125000 0.000000 0.000000 
0.401698 17.398117 -1.421507 3.317203 -3.286698 0.235316 -24.974512 -4.677673 -12.442920 1.869272 9.600511 30.967791 -0.062198 3.413612 -10.789265 0.554800 -4.771500 -13.257900 17.581565 10.076899 -13.956826 -3.693598 -11.173241 35.868857 0.441957 -6.425318 -13.859107 -0.565800 4.817600 -13.389100 -0.186161 3.619096 -1.835981 -1.386952 1.739213 -0.554497 4.370438 -5.801779 9.357210 2.499500 -2.942100 3.354700 -32.234519 -33.414764 9.276191 102.279281 -55.989406 -72.838952 0.729449 -0.094558 -44.022050 -7.125000 0.000000 0.000000 24.012083 34.707464 0.961020 -84.379121 57.287207 -52.894150 -0.329545 -0.618496 -38.530375 7.125000 0.000000 0.000000 
0.399517 17.402479 -1.413080 3.290914 -3.253417 0.325339 -24.931818 -4.695118 -12.430100 1.843120 9.563696 30.845870 -0.055119 3.354625 -10.690228 0.531600 -4.672300 -12.976200 17.606103 10.063860 -13.958937 -3.670416 -11.143433 35.765228 0.447259 -6.432373 -13.816573 -0.548400 4.744300 -13.180600 -0.178630 3.598925 -1.847095 -1.417458 1.728694 -0.520229 4.422539 -5.785997 9.121497 2.518200 -2.927800 3.219200 -33.768199 -32.338879 11.371684 104.346169 -55.822232 -74.667211 0.796967 -0.071638 -42.624229 -7.125000 0.000000 0.000000 25.935146 33.903811 3.063770 -86.877810 57.143833 -55.149968 -0.325773 -0.605730 -37.904194 7.125000 0.000000 0.000000 
